<svg xmlns="http://www.w3.org/2000/svg" viewBox="0 0 48 48"><path fill="#ef4823" d="M41.902,17.466c-0.907-3.548-3.324-6.801-6.708-8.202s-8.435-0.457-10.781,2.355l-2.597-0.09 c-3.259-0.765-6.737-1.52-9.888-0.39c-4.493,1.612-6.946,6.78-6.745,11.549c0.201,4.769,2.513,10.183,5.082,14.206 c1.281,2.005,2.679,4.002,4.612,5.389c1.933,1.387,3.585,2.717,5.809,1.872c0.454-0.173,1.771-1.573,2.813-1.573 c1.085,0,1.624,0.22,2.063,0.646c2.229,2.167,5.032,1.042,7.061-0.185c2.03-1.227,2.039-2.129,3.349-4.106 c2.021-3.054,3.939-7.216,5.151-10.671C42.335,24.811,42.809,21.014,41.902,17.466z"/><path fill="#38b47b" d="M27.377,6.647c0.419-2.16,2.327-3.632,4.275-4.395c2.198-0.86,4.702-1.069,6.893-0.135 c2.191,0.934,3.767,2.701,3.901,5.194c-1.06-0.613-2.125-0.353-3.29-0.057c-1.669,0.424-2.364,1.662-3.885,2.496 c-1.522,0.834-4.296,1.116-5.358-0.334C29.539,8.906,29.361,8.262,29,7.741S27.896,6.324,27.377,6.647"/><path fill="#a37b57" d="M25.162,14.42c-0.259,0.4-0.693,0.691-1.152,0.796s-1.063-0.466-1.112-0.942 c-0.064-1.193-0.85-2.527-1.609-3.439c-0.981-1.179-2.023-2.306-3.119-3.375c-0.557-0.543-1.181-1.236-0.994-1.997 c0.195-0.797,1.236-1.106,1.991-0.811c0.755,0.294,1.279,0.985,1.762,1.644c1.255,1.711,2.516,3.431,3.485,5.324 C24.873,12.518,25.711,13.575,25.162,14.42z"/><path fill="#010101" d="M36.619,9.438c0.18-0.143,0.356-0.286,0.526-0.429c0.67-0.562,1.248-1.046,2.135-1.271 c1.084-0.274,2.021-0.514,2.916,0.006c0.16,0.092,0.356,0.09,0.513-0.006c0.156-0.097,0.247-0.271,0.237-0.454 c-0.135-2.494-1.667-4.546-4.204-5.627c-2.146-0.913-4.727-0.866-7.272,0.129c-2.39,0.936-4.004,2.555-4.5,4.467 c-0.009,0.018-0.011,0.037-0.017,0.055c-1.211,0.659-2.491,2.045-2.718,3.964c-0.878-1.5-1.899-2.908-2.901-4.274 c-0.477-0.649-1.068-1.457-1.984-1.813c-0.568-0.221-1.257-0.184-1.796,0.097c-0.445,0.232-0.752,0.609-0.862,1.062 c-0.271,1.107,0.676,2.03,1.131,2.474c0.947,0.923,1.849,1.903,2.706,2.906c-2.733-0.606-5.879-1.089-8.766-0.054 c-4.9,1.76-7.27,7.39-7.08,12.04c0.18,4.27,2.11,9.68,5.16,14.46c1.22,1.89,2.68,4.04,4.75,5.52l0.3,0.22 c1.86,1.34,3.62,2.61,5.98,1.71c0.21-0.08,0.45-0.27,0.79-0.53c0.52-0.4,1.3-1.01,1.84-1.01c1,0,1.39,0.2,1.71,0.51 c0.94,0.9,2.03,1.36,3.28,1.36c1.3,0,2.77-0.5,4.39-1.48c1.59-0.96,2.05-1.76,2.68-2.88c0.22-0.4,0.48-0.85,0.83-1.38 c1.87-2.82,3.86-6.95,5.2-10.78c1.38-3.91,1.65-7.75,0.8-11.09C41.52,13.944,39.362,11.04,36.619,9.438z M31.834,2.718 c2.299-0.9,4.613-0.952,6.515-0.141c1.92,0.818,3.137,2.205,3.495,3.956c-0.957-0.237-1.896,0.004-2.811,0.236 c-1.108,0.281-1.831,0.888-2.531,1.474C36.059,8.615,35.6,9,35.03,9.312c-1.33,0.729-3.828,1.017-4.714-0.191 c-0.165-0.225-0.292-0.495-0.427-0.781c-0.138-0.294-0.28-0.598-0.479-0.882c-0.326-0.472-0.622-0.78-0.892-0.993 C29.132,6.2,29.948,5.893,30.509,5.7l0.198,0.153c0.828,0.64,1.962,1.517,2.388,1.969c0.099,0.104,0.231,0.157,0.364,0.157 c0.123,0,0.246-0.045,0.343-0.136c0.201-0.189,0.211-0.506,0.021-0.707c-0.409-0.434-1.283-1.127-2.091-1.754 c0.777-0.175,1.573-0.297,2.41-0.318c0.261,0.23,0.589,0.528,0.932,0.841c0.397,0.362,0.792,0.724,1.058,0.953 c0.095,0.081,0.211,0.121,0.327,0.121c0.14,0,0.279-0.059,0.379-0.173c0.18-0.21,0.157-0.525-0.052-0.706 c-0.261-0.225-0.648-0.578-1.038-0.935c-0.017-0.016-0.033-0.03-0.05-0.045c0.711,0.057,1.439,0.149,2.202,0.306 c0.259,0.063,0.535-0.118,0.59-0.389c0.057-0.27-0.118-0.534-0.389-0.59c-1.336-0.276-2.594-0.403-3.794-0.388 c-0.011,0-0.021-0.001-0.031,0c-1.286,0.019-2.504,0.202-3.67,0.556c-0.171,0.052-1.298,0.433-2.25,0.831 C29.255,3.882,31.002,3.043,31.834,2.718z M27.593,7.099c0.01-0.005,0.016-0.014,0.026-0.019c0.099,0,0.481,0.24,0.97,0.947 c0.093,0.134,0.167,0.3,0.245,0.458c-1.323,0.34-2.563,0.903-3.575,1.667C25.542,8.546,26.736,7.508,27.593,7.099z M17.66,5.582 c0.054-0.217,0.222-0.344,0.354-0.412c0.163-0.085,0.356-0.129,0.549-0.129c0.146,0,0.291,0.025,0.422,0.076 c0.645,0.251,1.142,0.929,1.541,1.474c1.225,1.669,2.49,3.396,3.442,5.256c0.089,0.173,0.19,0.352,0.294,0.532 c0.446,0.782,0.742,1.366,0.48,1.769l-0.001,0.001c-0.184,0.285-0.5,0.502-0.843,0.581c-0.014-0.006-0.115-0.02-0.229-0.108 c-0.159-0.124-0.266-0.299-0.273-0.374c-0.089-1.646-1.342-3.272-1.724-3.731c-0.984-1.185-2.046-2.333-3.155-3.415 C18.002,6.599,17.541,6.067,17.66,5.582z M40.65,28.1c-1.32,3.75-3.27,7.8-5.09,10.56c-0.37,0.55-0.64,1.02-0.87,1.44 c-0.6,1.05-0.96,1.69-2.32,2.52c-2.83,1.7-4.88,1.79-6.46,0.25c-0.57-0.56-1.27-0.79-2.41-0.79c-0.88,0-1.79,0.71-2.46,1.22 c-0.19,0.15-0.45,0.35-0.53,0.39c-1.85,0.71-3.26-0.31-5.03-1.59l-0.31-0.22c-1.92-1.38-3.32-3.43-4.48-5.25 c-2.96-4.64-4.83-9.86-5.01-13.96c-0.18-4.29,1.97-9.46,6.42-11.06c3.04-1.095,6.544-0.308,9.4,0.364 c0.467,0.726,0.859,1.58,0.901,2.351c0.016,0.16,0.076,0.321,0.156,0.477c-0.612-0.072-1.216-0.217-1.785-0.466 c-0.205-0.089-0.249-0.144-0.257-0.155c-0.08-0.262-0.351-0.409-0.62-0.334c-0.265,0.078-0.416,0.355-0.338,0.621 c0.146,0.494,0.633,0.706,0.815,0.785c0.931,0.407,1.938,0.603,2.946,0.603c2.13,0,4.268-0.87,5.706-2.458 c0.185-0.205,0.169-0.521-0.035-0.707c-0.203-0.183-0.52-0.169-0.707,0.035c-0.702,0.775-1.597,1.35-2.573,1.708 c0.202-0.476,0.142-0.967-0.03-1.438c-0.002-0.006-0.001-0.012-0.004-0.018c-0.008-0.017-0.012-0.033-0.019-0.05 c-0.008-0.021-0.016-0.042-0.024-0.064c-0.206-0.494-0.33-0.959-0.389-1.395c1.034-0.995,2.494-1.704,4.075-2.067 c0.061,0.105,0.119,0.211,0.193,0.312c0.649,0.886,1.775,1.227,2.941,1.227c1.109,0,2.256-0.31,3.06-0.75 c0.067-0.036,0.125-0.076,0.189-0.113c2.718,1.407,4.875,4.2,5.721,7.515C42.22,20.74,41.96,24.38,40.65,28.1z"/><path fill="#d6e5e5" d="M17.141,26.796c-0.533,0.453-1.235,0.787-1.904,0.993c-0.229,0.07-0.469,0.125-0.706,0.088 c-0.567-0.088-0.92-0.648-1.181-1.158c-1.154-2.255-0.929-2.283-1.479-4.756c-0.243-1.093-0.362-2.404,0.453-3.172 c0.794-0.748,2.119-0.405,3.189-0.19c-0.492,1.335-0.151,2.343,0.19,3.821C15.828,22.966,16.374,25.541,17.141,26.796z"/><path fill="#010101" d="M14.688,28.389c-0.076,0-0.154-0.005-0.233-0.018c-0.791-0.123-1.243-0.826-1.549-1.425 c-0.906-1.771-1.001-2.263-1.23-3.453c-0.072-0.375-0.159-0.827-0.292-1.423c-0.14-0.63-0.566-2.548,0.599-3.645 c0.926-0.87,2.293-0.59,3.394-0.364l0.236,0.048c0.144,0.028,0.268,0.118,0.339,0.246s0.083,0.28,0.032,0.417 c-0.386,1.047-0.194,1.849,0.096,3.063l0.143,0.607c0.446,1.984,0.899,3.361,1.347,4.093c0.128,0.21,0.085,0.482-0.103,0.642 c-0.535,0.455-1.273,0.842-2.08,1.09C15.19,28.326,14.948,28.389,14.688,28.389z M13.69,18.832c-0.406,0-0.769,0.082-1.023,0.322 c-0.506,0.476-0.606,1.358-0.308,2.699c0.135,0.606,0.224,1.067,0.298,1.451c0.222,1.153,0.297,1.543,1.139,3.187 c0.197,0.388,0.469,0.838,0.813,0.892c0.146,0.021,0.325-0.023,0.481-0.071c0.525-0.162,1.012-0.39,1.405-0.654 c-0.643-1.298-1.092-3.293-1.25-3.995l-0.14-0.595c-0.254-1.063-0.478-2.001-0.228-3.087C14.477,18.901,14.064,18.832,13.69,18.832 z"/></svg>